<?xml version="1.0" standalone="no"?>
<!DOCTYPE svg PUBLIC "-//W3C//DTD SVG 20010904//EN"
 "http://www.w3.org/TR/2001/REC-SVG-20010904/DTD/svg10.dtd">
<svg version="1.0" xmlns="http://www.w3.org/2000/svg"
 width="700.000000pt" height="700.000000pt" viewBox="0 0 700.000000 700.000000"
 preserveAspectRatio="xMidYMid meet">
<metadata>
Created by potrace 1.14, written by Peter Selinger 2001-2017
</metadata>
<g transform="translate(0.000000,700.000000) scale(0.100000,-0.100000)"
fill="#000000" stroke="none">
<path d="M1187 6864 c-1 -1 -63 -4 -137 -8 -74 -3 -146 -8 -160 -10 -14 -2
-54 -7 -90 -11 -319 -31 -745 -148 -745 -204 0 -8 28 -31 62 -52 213 -129 356
-287 658 -729 184 -268 323 -424 490 -550 75 -56 226 -150 241 -150 2 0 23 -8
47 -19 319 -142 643 -75 831 172 16 20 33 37 38 37 5 0 44 -26 86 -59 143
-108 282 -275 372 -446 46 -87 115 -264 126 -324 3 -14 7 -28 9 -32 7 -10 52
-226 60 -284 12 -90 13 -99 20 -175 4 -41 9 -91 12 -110 2 -19 4 -866 3 -1881
-2 -1702 0 -1849 15 -1879 22 -42 118 -87 225 -104 74 -12 242 -14 300 -3 61
12 118 31 161 54 86 46 79 -62 79 1207 l0 1125 46 78 c98 166 288 428 404 558
146 164 382 385 410 385 7 0 29 -13 49 -29 127 -100 330 -138 521 -97 87 18
211 64 278 103 59 33 155 95 162 104 3 3 12 10 21 15 45 25 189 161 265 249
43 51 164 219 164 228 0 3 132 224 174 292 78 125 149 226 191 271 6 6 23 27
39 47 42 52 170 158 244 201 86 51 77 65 -77 126 -62 24 -301 84 -375 94 -27
4 -52 9 -55 10 -3 2 -33 6 -66 10 -33 3 -69 8 -80 10 -22 4 -108 13 -220 22
-135 11 -480 5 -564 -11 -9 -1 -41 -6 -71 -11 -30 -4 -57 -8 -60 -9 -3 -1 -23
-5 -45 -9 -142 -28 -306 -89 -411 -152 -237 -143 -365 -360 -378 -642 -2 -40
-5 -74 -7 -76 -2 -2 -35 -25 -73 -51 -39 -27 -77 -54 -85 -61 -9 -7 -47 -38
-86 -69 -84 -68 -136 -115 -236 -212 -63 -62 -75 -70 -75 -51 -1 46 -15 288
-19 310 -2 13 -6 50 -10 83 -3 33 -8 74 -10 90 -3 17 -7 48 -10 70 -34 247
-135 598 -226 785 -12 24 -30 63 -41 85 -48 104 -184 314 -256 397 -186 217
-424 408 -656 528 -67 35 -88 51 -92 70 -13 58 -57 169 -87 220 -40 68 -164
195 -237 242 -157 101 -379 177 -595 203 -27 4 -61 8 -75 11 -48 7 -386 23
-393 18z"/>
</g>
</svg>
